# Blender v2.82 (sub 7) OBJ File: ''
# www.blender.org
mtllib debug_camera_mesh.mtl
o Cube_Cube.001
v 0.049152 0.049152 0.040001
v 0.049152 0.049152 0.000000
v 0.049152 -0.049152 -0.000000
v 0.049152 -0.049152 0.040001
v -0.049152 0.049152 0.000000
v -0.049152 -0.049152 -0.000000
v -0.049152 0.049152 0.040001
v -0.159677 0.159677 0.240001
v -0.159677 -0.159677 0.240001
v -0.049152 -0.049152 0.040001
v 0.159677 0.159677 0.240001
v 0.159677 -0.159677 0.240001
vt 0.384150 0.673807
vt 0.384150 0.826193
vt 0.334984 0.826193
vt 0.334984 0.673807
vt 0.868171 0.153149
vt 0.743387 0.153149
vt 0.743387 0.000762
vt 0.868171 0.000762
vt 0.282517 0.673807
vt 0.282517 0.826193
vt 0.001650 0.997525
vt 0.001650 0.502475
vt 0.002027 0.497525
vt 0.002027 0.002475
vt 0.407403 0.002475
vt 0.407403 0.497525
vt 0.717483 0.826193
vt 0.717483 0.673807
vt 0.998350 0.502475
vt 0.998350 0.997525
vt 0.691947 0.173807
vt 0.691947 0.326193
vt 0.411080 0.497525
vt 0.411080 0.002475
vt 0.741113 0.173807
vt 0.741113 0.326193
vt 0.668317 0.826193
vt 0.668317 0.673807
vt 0.331683 0.673807
vt 0.331683 0.826193
vt 0.665017 0.502475
vt 0.665017 0.997525
vn 1.0000 0.0000 0.0000
vn 0.0000 0.0000 -1.0000
vn -0.8752 0.0000 -0.4837
vn 0.0000 0.0000 1.0000
vn 0.0000 0.8752 -0.4837
vn 0.0000 -0.8752 -0.4837
vn 0.0000 -1.0000 0.0000
vn 0.0000 1.0000 0.0000
vn -1.0000 0.0000 0.0000
vn 0.8752 -0.0000 -0.4837
usemtl default
s 1
f 1/1/1 4/2/1 3/3/1 2/4/1
f 2/5/2 3/6/2 6/7/2 5/8/2
f 7/9/3 10/10/3 9/11/3 8/12/3
f 8/13/4 9/14/4 12/15/4 11/16/4
f 1/17/5 7/18/5 8/19/5 11/20/5
f 10/21/6 4/22/6 12/23/6 9/24/6
f 6/25/7 3/26/7 4/22/7 10/21/7
f 2/27/8 5/28/8 7/18/8 1/17/8
f 5/29/9 6/30/9 10/10/9 7/9/9
f 11/31/10 12/32/10 4/2/10 1/1/10
